<?xml version="1.0" standalone="no"?>
<!DOCTYPE svg PUBLIC "-//W3C//DTD SVG 1.1//EN"
"http://www.w3.org/Graphics/SVG/1.1/DTD/svg11.dtd">
<svg	xmlns="http://www.w3.org/2000/svg"
	xmlns:xlink="http://www.w3.org/1999/xlink"
	width="1em" height="1em"
	viewBox="0 0 34 34">
<g style="stroke-width: .5; stroke-linejoin: miter; stroke: black; fill: black">
<path d="M 23, 4 l -6, 6 v -4 a 11 11 0 1 0 11 11 a 2 2 0 0 1 4 0 a 15 15 0 1 1 -15 -15 v -4 z"
transform="translate(34,0) scale(-1,1) rotate(45,17,17)"/>
<path d="M 16,17 a 1 1 0 0 1 2 0 v 8 a 1 1 0 0 1 -2 0 z"/>
<path d="M 16,17 h2 v -5 a 1 1 0 0 0 -2 0 z" transform="rotate(45,17,17)"/>
</g>
</svg>
