<?xml version="1.0" standalone="no"?>
<!DOCTYPE svg PUBLIC "-//W3C//DTD SVG 1.1//EN"
"http://www.w3.org/Graphics/SVG/1.1/DTD/svg11.dtd">
<svg	xmlns="http://www.w3.org/2000/svg"
	xmlns:xlink="http://www.w3.org/1999/xlink"
	width="1em" height="1em"
	viewBox="0 0 34 34">
<path d="
M 11,11 L 13,11 L 13.363,13.048 L 15.295,13.565
L 16.634,11.974 L 18.366,12.974 L 17.657,14.929 L 19.071,16.343
L 21.026,15.634 L 22.026,17.366 L 20.435,18.705 L 20.952,20.637
L 23,21 L 23,23 L 20.952,23.363 L 20.435,25.295
L 22.026,26.634 L 21.026,28.366 L 19.071,27.657 L 17.657,29.071
L 18.366,31.026 L 16.634,32.026 L 15.295,30.435 L 13.363,30.952
L 13,33 L 11,33 L 10.637,30.952 L 8.705,30.435
L 7.366,32.026 L 5.634,31.026 L 6.343,29.071 L 4.929,27.657
L 2.974,28.366 L 1.974,26.634 L 3.565,25.295 L 3.048,23.363
L 1,23 L 1,21 L 3.048,20.637 L 3.565,18.705
L 1.974,17.366 L 2.974,15.634 L 4.929,16.343 L 6.343,14.929
L 5.634,12.974 L 7.366,11.974 L 8.705,13.565 L 10.637,13.048
z
M 7, 22 a 5 5 0 0 0 10 0 a 5 5 0 0 0 -10 0
M 24,1 L 26,1 L 26.372,3.074 L 28.22,3.839
L 29.95,2.636 L 31.364,4.05 L 30.161,5.78 L 30.926,7.628
L 33,8 L 33,10 L 30.926,10.372 L 30.161,12.22
L 31.364,13.95 L 29.95,15.364 L 28.22,14.161 L 26.372,14.926
L 26,17 L 24,17 L 23.628,14.926 L 21.78,14.161
L 20.05,15.364 L 18.636,13.95 L 19.839,12.22 L 19.074,10.372
L 17,10 L 17,8 L 19.074,7.628 L 19.839,5.78
L 18.636,4.05 L 20.05,2.636 L 21.78,3.839 L 23.628,3.074
z
M 21.5, 9 a 3.5 3.5 0 0 0 7 0 a 3.5 3.5 0 0 0 -7 0
"
style="stroke-width: .5; stroke-linejoin: miter; stroke: black; fill: black"/>
</svg>
