<?xml version="1.0" standalone="no"?>
<!DOCTYPE svg PUBLIC "-//W3C//DTD SVG 1.1//EN"
"http://www.w3.org/Graphics/SVG/1.1/DTD/svg11.dtd">
<svg	xmlns="http://www.w3.org/2000/svg"
	xmlns:xlink="http://www.w3.org/1999/xlink"
	width="1em" height="1em"
	viewBox="0 0 30 34">
<rect x="0" y="4" width="30" height="26"
style="stroke-width: .5; stroke-linejoin: miter; stroke: black; fill: #ff5050"/>
<g style="stroke-width: 0; stroke-linejoin: miter; stroke: black; fill: black">
<rect x="0" y="4" width="30" height="4"/>
<rect x="6" y="10" width="2" height="2"/>
<rect x="10" y="10" width="2" height="2"/>
<rect x="14" y="10" width="2" height="2"/>
<rect x="18" y="10" width="2" height="2"/>
<rect x="22" y="10" width="2" height="2"/>
<rect x="26" y="10" width="2" height="2"/>
<rect x="2" y="14" width="2" height="2"/>
<rect x="6" y="14" width="2" height="2"/>
<rect x="10" y="14" width="2" height="2"/>
<rect x="14" y="14" width="2" height="2"/>
<rect x="18" y="14" width="2" height="2"/>
<rect x="22" y="14" width="2" height="2"/>
<rect x="26" y="14" width="2" height="2"/>
<rect x="2" y="18" width="2" height="2"/>
<rect x="6" y="18" width="2" height="2"/>
<rect x="10" y="18" width="2" height="2"/>
<rect x="14" y="18" width="2" height="2"/>
<rect x="18" y="18" width="2" height="2"/>
<rect x="22" y="18" width="2" height="2"/>
<rect x="26" y="18" width="2" height="2"/>
<rect x="2" y="22" width="2" height="2"/>
<rect x="6" y="22" width="2" height="2"/>
<rect x="10" y="22" width="2" height="2"/>
<rect x="14" y="22" width="2" height="2"/>
<rect x="18" y="22" width="2" height="2"/>
<rect x="22" y="22" width="2" height="2"/>
<rect x="26" y="22" width="2" height="2"/>
<rect x="2" y="26" width="2" height="2"/>
<rect x="6" y="26" width="2" height="2"/>
<rect x="10" y="26" width="2" height="2"/>
<rect x="14" y="26" width="2" height="2"/>
</g>
</svg>
